<?xml version="1.0" encoding="UTF-8"?>
<!DOCTYPE svg PUBLIC "-//W3C//DTD SVG 1.1//EN" "http://www.w3.org/Graphics/SVG/1.1/DTD/svg11.dtd">
<svg xmlns="http://www.w3.org/2000/svg" version="1.1" width="500px" height="500px" style="shape-rendering:geometricPrecision; text-rendering:geometricPrecision; image-rendering:optimizeQuality; fill-rule:evenodd; clip-rule:evenodd" xmlns:xlink="http://www.w3.org/1999/xlink">
<g><path fill="#000000" stroke="#000000" stroke-width="0.5" d="M 38.87,55.06 c 0.14,-4.89 0.15,-9.79 0.04,-14.69 c -0.05,-0.59 0.17,-1.04 0.65,-1.35 c 22.58,0.24 45.17,0.32 67.75,0.23 c 0.68,0.24 1.15,0.69 1.42,1.37 c 6.04,12.58 14.13,26.45 18.68,39.4 c 0.25,0.43 0.62,0.68 1.11,0.75 c 103.96,0.13 207.93,0.17 311.9,0.11 c 10.04,0.47 15.87,4.88 20.22,13.8 c 2.75,10.03 -1.68,20.11 -7.23,28.18 c -15.17,27.81 -30.72,55.59 -45.79,83.47 c -4.57,7.02 -8.71,16.61 -13.25,23.52 c -10.59,19.15 -15.11,33.83 -38.02,40.8 c -55.53,1.51 -111.13,0.18 -166.71,0.71 c -1.95,0.33 -1.83,3.56 -2.97,4.97 c -5.99,10.17 -11.83,20.56 -17.03,31.19 c -0.51,3.07 1.8,5.97 4.85,6.18 c 81.04,-0.03 162.08,-0.05 243.12,-0.07 c 1.06,0.11 1.63,0.71 1.71,1.78 c 0.12,13.33 0.03,26.65 -0.26,39.97 c -0.46,0.36 -0.99,0.5 -1.58,0.44 c -85,-0.04 -170,-0.06 -255,-0.07 c -7.1,-0.9 -13.51,-1.53 -19.26,-6.43 c -21.6,-12.32 -25.75,-40.98 -12.18,-60.9 c 7.63,-14.68 16.26,-29.32 24.04,-44.04 c 1.01,-1.45 1.35,-3.02 0.99,-4.72 c -20.15,-41.5 -39.49,-83.77 -59.71,-125.25 c 0.38,-2.28 -2.37,-3.22 -2.37,-5.8 c -4.57,-8.86 -8.87,-17.84 -12.87,-26.95 c -0.7,-0.73 -1.55,-1.04 -2.57,-0.94 c -12.97,0.02 -25.94,0.02 -38.9,-0.01 c -0.52,-0.6 -0.74,-1.3 -0.68,-2.12 c 0.04,-7.84 0.01,-15.69 -0.1,-23.53 Z M 123.66,421 c -1.01,-12.86 4.49,-24.46 13.4,-33.34 c 1.41,-0.45 6.36,-4.56 7.62,-5.35 c 21.21,-9.47 37.29,-6.13 53.62,9.8 c 10.39,14.67 10.38,21.3 8.37,39.23 c -9.99,26.19 -33.46,36.61 -60.04,26.22 c -1.64,-1.38 -3.47,-2.45 -5.5,-3.22 c -11.69,-11.11 -16.46,-16.69 -17.47,-33.34 Z M 335.08,420.02 c 0.92,-21.9 10.18,-34.18 30.55,-41.62 c 23.56,-5.08 44,5.75 52.03,28.3 c 8.19,37.39 -20.67,63.13 -57.05,51.94 c -16.72,-8.19 -24.43,-19.92 -25.53,-38.62 Z"/></g>
</svg>
